<?xml version="1.0" encoding="UTF-8"?>
<svg height="50px" width="40px" id="Layer_2" data-name="Layer 2" xmlns="http://www.w3.org/2000/svg" viewBox="0 0 133.05 170.27">
  <defs>
    <style>
      .cls-1 {
        fill: #345c98;
        stroke-width: 0px;
      }
    </style>
  </defs>
  <g id="Layer_1_copy" data-name="Layer 1 copy">
    <path class="cls-1" d="M66.52,37.02c3.93,30.72,9.34,35.6,11.16,37.24,5.87,5.34,19.15,8.77,31.25,10.89-12.1,2.13-25.38,5.55-31.24,10.85-1.83,1.65-7.24,6.54-11.17,37.25-3.93-30.72-9.34-35.6-11.18-37.26-5.91-5.29-19.18-8.71-31.26-10.84,12.09-2.11,25.36-5.54,31.27-10.88,1.83-1.65,7.24-6.54,11.17-37.25M66.52,0s-2.14,62.07-13.18,72.05C42.3,82.02,0,85.14,0,85.14c0,0,42.3,3.21,53.34,13.09,11.04,9.97,13.18,72.04,13.18,72.04,0,0,2.14-62.07,13.18-72.04,10.95-9.89,53.34-13.09,53.34-13.09,0,0-42.39-3.12-53.34-13.09C68.66,62.07,66.52,0,66.52,0h0Z"/>
  </g>
</svg>